<?xml version="1.0" standalone="no"?>
<!DOCTYPE svg PUBLIC "-//W3C//DTD SVG 20010904//EN"
 "http://www.w3.org/TR/2001/REC-SVG-20010904/DTD/svg10.dtd">
<svg version="1.0" xmlns="http://www.w3.org/2000/svg"
 width="40.000000pt" height="94.000000pt" viewBox="0 0 40.000000 94.000000"
 preserveAspectRatio="xMidYMid meet">
<metadata>
Created by potrace 1.15, written by Peter Selinger 2001-2017
</metadata>
<g transform="translate(0.000000,94.000000) scale(0.100000,-0.100000)"
fill="#000000" stroke="none">
<path d="M222 664 c-7 -8 -19 -12 -25 -8 -7 3 -4 -1 6 -9 15 -13 15 -16 2 -27
-12 -10 -15 -10 -15 4 0 10 -5 14 -10 11 -6 -4 -7 -11 -4 -17 4 -7 2 -8 -5 -4
-6 4 -9 11 -6 15 2 5 -6 9 -19 9 -26 0 -43 -33 -24 -45 7 -4 8 -1 3 7 -5 9 -4
11 3 6 7 -4 12 -2 12 4 0 6 5 8 10 5 6 -3 10 -11 10 -16 0 -6 -5 -7 -11 -4 -6
4 -13 -2 -16 -13 -2 -11 -14 -23 -25 -25 -15 -4 -19 -11 -15 -26 3 -12 2 -19
-3 -16 -10 6 -22 -54 -13 -68 3 -5 1 -7 -4 -4 -6 4 -13 -7 -17 -26 -3 -17 -18
-56 -32 -85 -18 -36 -23 -57 -16 -64 5 -5 38 -12 72 -15 l62 -6 -4 -60 c-4
-50 -9 -64 -32 -84 -15 -12 -24 -28 -21 -33 9 -15 48 -12 73 6 21 14 25 14 56
-5 48 -30 126 -27 126 5 0 8 -6 14 -13 14 -8 0 -24 12 -38 26 -19 20 -24 36
-23 75 0 27 3 52 7 56 4 3 23 6 42 5 19 -1 35 3 35 8 0 5 6 7 14 4 7 -3 17 3
20 13 6 14 4 15 -5 6 -9 -9 -20 -5 -50 19 -20 16 -42 27 -47 24 -5 -3 -12 5
-14 19 -6 30 7 33 24 6 6 -11 18 -17 26 -13 11 4 13 1 7 -8 -5 -8 -4 -11 2 -7
12 8 36 -17 26 -26 -3 -4 -1 -7 5 -7 6 0 14 5 17 10 3 6 1 10 -6 10 -6 0 -9 8
-6 19 3 13 0 18 -7 15 -7 -3 -23 0 -37 5 -13 5 -18 10 -11 10 15 1 16 27 0 37
-8 5 -9 2 -4 -12 6 -15 3 -14 -18 5 -24 23 -36 49 -18 37 4 -2 9 6 10 20 1 17
-3 24 -16 23 -10 0 -12 -3 -4 -6 17 -7 15 -23 -3 -23 -8 0 -15 7 -15 15 0 7
-8 19 -17 25 -16 10 -15 11 5 7 15 -4 22 0 22 10 0 8 5 11 10 8 6 -3 10 -2 10
3 0 6 -7 13 -16 16 -22 8 -26 8 -19 -3 3 -5 1 -12 -5 -16 -5 -3 -10 -1 -10 4
0 6 -5 11 -11 11 -5 0 -8 -4 -5 -9 7 -11 -21 -8 -31 4 -4 4 -3 5 3 2 7 -4 15
0 18 9 3 9 2 12 -5 8 -6 -3 -20 4 -31 16 -19 21 -19 22 -2 18 11 -2 18 -10 16
-16 -2 -14 8 -15 27 -3 9 6 10 11 2 15 -16 10 -14 26 4 26 8 0 15 5 15 11 0 5
6 7 13 3 9 -5 9 -4 0 6 -8 9 -9 20 -2 38 11 30 9 35 -9 16z"/>
</g>
</svg>
