<?xml version="1.0" standalone="no"?>
<!DOCTYPE svg PUBLIC "-//W3C//DTD SVG 20010904//EN"
 "http://www.w3.org/TR/2001/REC-SVG-20010904/DTD/svg10.dtd">
<svg version="1.0" xmlns="http://www.w3.org/2000/svg"
 width="32.000000pt" height="32.000000pt" viewBox="0 0 32.000000 32.000000"
 preserveAspectRatio="xMidYMid meet">
<metadata>
Created by potrace 1.15, written by Peter Selinger 2001-2017
</metadata>
<g transform="translate(0.000000,32.000000) scale(0.100000,-0.100000)"
fill="#000000" stroke="none">
<path d="M0 171 c0 -146 0 -149 21 -144 13 4 17 8 9 13 -8 5 -7 12 5 24 9 9
21 14 26 11 5 -4 9 -1 9 4 0 21 47 11 70 -14 16 -17 19 -25 9 -25 -12 0 -12
-2 0 -9 7 -5 10 -14 7 -20 -5 -7 8 -11 38 -11 25 0 46 4 46 9 0 20 41 23 61 5
19 -17 19 -14 18 147 0 90 -3 158 -6 152 -6 -15 -59 -17 -68 -3 -3 6 -29 10
-56 10 -28 0 -48 -4 -45 -9 6 -9 -40 -21 -79 -21 -13 0 -25 7 -29 15 -3 8 -12
15 -21 15 -13 0 -15 -22 -15 -149z m238 80 c2 -6 9 -11 15 -11 7 0 12 -16 11
-39 -1 -46 -42 -90 -86 -91 -40 0 -102 62 -92 92 4 13 7 25 7 28 0 11 32 27
44 23 7 -3 13 0 13 7 0 16 83 7 88 -9z"/>
</g>
</svg>
